<svg xmlns="http://www.w3.org/2000/svg" viewBox="0 0 64 64" fill="none">
  <defs>
    <linearGradient id="flame" x1="32" y1="56" x2="32" y2="8" gradientUnits="userSpaceOnUse">
      <stop offset="0%" stop-color="#FF6B35"/>
      <stop offset="50%" stop-color="#FF8C42"/>
      <stop offset="100%" stop-color="#FFD460"/>
    </linearGradient>
    <linearGradient id="inner" x1="32" y1="48" x2="32" y2="20" gradientUnits="userSpaceOnUse">
      <stop offset="0%" stop-color="#FF4500"/>
      <stop offset="100%" stop-color="#FF6B35"/>
    </linearGradient>
  </defs>
  <!-- Outer flame -->
  <path d="M32 8C32 8 18 20 18 34c0 7.7 6.3 14 14 14s14-6.3 14-14C46 20 32 8 32 8z" fill="url(#flame)"/>
  <!-- Inner flame -->
  <path d="M32 22C32 22 24 30 24 37c0 4.4 3.6 8 8 8s8-3.6 8-8C40 30 32 22 32 22z" fill="url(#inner)"/>
  <!-- Ember core -->
  <ellipse cx="32" cy="40" rx="3.5" ry="4" fill="#FFD460" opacity="0.9"/>
</svg>
